<?xml version="1.0" standalone="no"?>
<!DOCTYPE svg PUBLIC "-//W3C//DTD SVG 20010904//EN"
 "http://www.w3.org/TR/2001/REC-SVG-20010904/DTD/svg10.dtd">
<svg version="1.0" xmlns="http://www.w3.org/2000/svg"
 width="44.000000pt" height="44.000000pt" viewBox="0 0 44.000000 44.000000"
 preserveAspectRatio="xMidYMid meet">
<metadata>
Created by potrace 1.16, written by Peter Selinger 2001-2019
</metadata>
<g transform="translate(0.000000,44.000000) scale(0.014474,-0.015827)"
fill="#000000" stroke="none">
<path d="M918 2028 c-578 -582 -618 -624 -618 -657 0 -31 17 -52 187 -225 204
-207 235 -233 274 -223 16 4 328 313 817 807 778 786 792 801 792 839 0 31 -6
44 -26 60 -26 20 -38 21 -418 21 l-391 1 -617 -623z m937 210 c-138 -139 -445
-449 -683 -688 l-432 -435 -127 127 -128 128 507 507 c279 280 528 532 554
561 l47 52 256 0 256 0 -250 -252z"/>
<path d="M1192 1197 c-328 -328 -342 -344 -342 -380 0 -36 15 -52 343 -383
l342 -344 393 0 394 0 29 29 c31 32 35 50 18 84 -6 12 -143 155 -304 317
l-294 295 295 300 c162 165 299 311 305 324 12 30 -4 77 -32 91 -10 6 -178 10
-411 10 l-393 0 -343 -343z m650 -80 c-245 -246 -262 -265 -262 -299 0 -33 18
-54 261 -302 l261 -266 -248 0 -249 0 -282 282 -282 282 276 283 275 283 256
0 256 0 -262 -263z"/>
</g>
</svg>
